<svg xmlns="http://www.w3.org/2000/svg" width="44" height="44" x="0" y="0" viewBox="0 0 172 172" style="fill:#000"><defs><linearGradient id="color-1_NU48HGBGk0Do_gr1" x1="86" x2="86" y1="61.584" y2="106.108" gradientUnits="userSpaceOnUse"><stop offset="0" stop-color="#eaee83"/><stop offset="1" stop-color="#fdc599"/></linearGradient><linearGradient id="color-2_NU48HGBGk0Do_gr2" x1="86" x2="86" y1="11.607" y2="151.94" gradientUnits="userSpaceOnUse"><stop offset="0" stop-color="#d9e021"/><stop offset="1" stop-color="#fb872b"/></linearGradient><linearGradient id="color-3_NU48HGBGk0Do_gr3" x1="86" x2="86" y1="11.607" y2="151.94" gradientUnits="userSpaceOnUse"><stop offset="0" stop-color="#d9e021"/><stop offset="1" stop-color="#fb872b"/></linearGradient></defs><g fill="none" fill-rule="nonzero" stroke="none" stroke-dashoffset="0" stroke-linecap="butt" stroke-linejoin="miter" stroke-miterlimit="10" stroke-width="1" font-family="none" font-size="none" font-weight="none" text-anchor="none" style="mix-blend-mode:normal"><path fill="none" d="M0,172v-172h172v172z"/><g><path fill="url(#color-1_NU48HGBGk0Do_gr1)" d="M86,64.5l-43,18.8125l43,24.1875l43,-24.1875z"/><path fill="url(#color-2_NU48HGBGk0Do_gr2)" d="M42.94356,86.57513l40.39044,23.08025c0.82237,0.46762 1.7415,0.70144 2.66331,0.70144c0.92181,0 1.84363,-0.23381 2.666,-0.70413l40.38775,-23.08025c1.27119,-0.72831 2.20106,-1.95919 2.55044,-3.37819c0.35206,-1.419 0.10213,-2.94012 -0.68263,-4.17369l-40.38506,-63.46262c-0.99169,-1.55875 -2.6875,-2.48863 -4.53381,-2.48863c-1.849,0 -3.54212,0.92988 -4.5365,2.48863l-40.38775,63.46531c-0.78475,1.23356 -1.03469,2.752 -0.68262,4.17369c0.34937,1.42169 1.28194,2.65256 2.55044,3.37819zM47.29463,82.87713l36.01788,-14.40769v34.98319zM88.6875,68.46944l36.0125,14.405l-36.0125,20.58087zM122.84563,76.34381l-34.15812,-13.66325v-40.01419zM83.3125,22.66638v40.01419l-34.15813,13.66325z"/><path fill="url(#color-3_NU48HGBGk0Do_gr3)" d="M134.85338,94.13506c-0.85731,-0.95137 -2.27363,-1.16637 -3.37281,-0.51062l-45.48056,27.10612l-45.48056,-27.10612c-1.09919,-0.65844 -2.51281,-0.44612 -3.37281,0.51062c-0.85731,0.95406 -0.9245,2.38113 -0.15588,3.40775l44.68238,59.67594c1.02394,1.39212 2.6015,2.18762 4.32688,2.18762c1.72537,0 3.30294,-0.7955 4.31344,-2.1715l44.69313,-59.69206c0.76863,-1.02663 0.70413,-2.45369 -0.15319,-3.40775zM49.43925,105.19681l33.87325,20.1885v25.05556zM88.6875,150.414v-25.02869l33.86788,-20.18581z"/></g></g></svg>